Coordinates
version=1
nRows=20
nColumns=38
inDegrees=no

Units are S.I. units (second, meters, Newtons, ...)
If the header above contains a line with 'inDegrees', this indicates whether rotational values are in degrees (yes) or radians (no).

endheader
time	pelvis_tilt	pelvis_list	pelvis_rotation	pelvis_tx	pelvis_ty	pelvis_tz	hip_flexion_r	hip_adduction_r	hip_rotation_r	knee_angle_r	ankle_angle_r	subtalar_angle_r	mtp_angle_r	hip_flexion_l	hip_adduction_l	hip_rotation_l	knee_angle_l	ankle_angle_l	subtalar_angle_l	mtp_angle_l	lumbar_extension	lumbar_bending	lumbar_rotation	arm_flex_r	arm_add_r	arm_rot_r	elbow_flex_r	pro_sup_r	wrist_flex_r	wrist_dev_r	arm_flex_l	arm_add_l	arm_rot_l	elbow_flex_l	pro_sup_l	wrist_flex_l	wrist_dev_l
0	0.276406	1.40734	1.45853	0.673108	0.160308	1.04776	0.345482	-0.0526961	-0.029682	0.405186	-0.213345	0	0	0.352048	-0.147467	-0.178589	0.47285	-0.29943	0	0	-0.287031	0.0470707	-0.128056	0.450918	-0.30359	0.573077	0.440433	1.5708	0	0	-0.0852446	-0.341637	0.0444321	0.682741	1.43376	0	0
0.01	0.287481	1.41658	1.44344	0.671637	0.158797	1.04795	0.342925	-0.0539585	-0.028051	0.414729	-0.213294	0	0	0.34181	-0.148109	-0.182285	0.472954	-0.298293	0	0	-0.301472	0.0257019	-0.0990053	0.442013	-0.30961	0.570073	0.433968	1.5708	0	0	-0.0974713	-0.352002	0.029075	0.750922	1.44176	0	0
0.02	0.28981	1.41029	1.4345	0.669747	0.158182	1.04717	0.357783	-0.0545527	-0.0243663	0.426888	-0.214027	0	0	0.345855	-0.148318	-0.18543	0.470603	-0.296972	0	0	-0.296636	0.0252008	-0.0935632	0.439244	-0.310041	0.558553	0.436766	1.5708	0	0	-0.0900623	-0.356374	0.0498374	0.745775	1.4286	0	0
0.03	0.212341	1.40269	1.50886	0.670532	0.158136	1.04391	0.383081	-0.0678053	-0.0205157	0.459242	-0.196706	0	0	0.354982	-0.139743	-0.194705	0.473789	-0.29226	0	0	-0.174512	-0.0369491	0.368244	-0.0396773	-0.399319	-0.056094	0.607068	1.5708	0	0	0.417603	-0.278872	1.22714	0.372696	0.88977	0	0
0.04	0.288439	1.38955	1.42278	0.6659	0.157185	1.04491	0.398196	-0.05504	-0.0142423	0.455273	-0.21463	0	0	0.362189	-0.149232	-0.19453	0.464777	-0.291844	0	0	-0.37957	0.00549194	-0.0800331	0.456269	-0.341993	0.558502	0.528121	1.56004	0	0	-0.109666	-0.354195	-0.0546615	0.877087	1.52301	0	0
0.05	0.286587	1.3832	1.41737	0.66432	0.15647	1.04405	0.414382	-0.0552072	-0.00758978	0.468387	-0.215535	0	0	0.366043	-0.149238	-0.198093	0.462112	-0.290092	0	0	-0.374158	0.0050559	-0.0701296	0.449786	-0.347447	0.545968	0.536588	1.56154	0	0	-0.0969522	-0.359762	-0.0273983	0.867499	1.50729	0	0
0.06	0.210699	1.36222	1.48952	0.66532	0.156819	1.04003	0.454442	-0.0669871	0.00346199	0.499952	-0.201219	0	0	0.388191	-0.139242	-0.204926	0.461633	-0.288359	0	0	-0.132645	-0.0807439	0.40377	0.0974614	-0.348763	0.0114501	0.343131	1.5708	0	0	0.447836	-0.287759	1.27835	0.386776	0.90142	0	0
0.07	0.293437	1.37708	1.39779	0.661214	0.154642	1.04284	0.440799	-0.0542685	0.00630732	0.497346	-0.215434	0	0	0.367369	-0.151093	-0.208957	0.457089	-0.284331	0	0	-0.381535	0.00930133	-0.107336	0.531622	-0.355037	0.796324	0.519942	1.31941	0	0	-0.129147	-0.347702	-0.0949003	0.888133	1.54854	0	0
0.08	0.293222	1.37138	1.39147	0.659848	0.153758	1.04201	0.456062	-0.0531426	0.0143806	0.509437	-0.216087	0	0	0.371072	-0.152009	-0.213246	0.454875	-0.282133	0	0	-0.381214	0.00910254	-0.105379	0.537351	-0.359475	0.811757	0.526854	1.29609	0	0	-0.124928	-0.348982	-0.0908875	0.887762	1.54689	0	0
0.09	0.292339	1.36606	1.38655	0.658589	0.152773	1.04122	0.471031	-0.0522876	0.0213634	0.521875	-0.216476	0	0	0.3748	-0.152904	-0.216792	0.452881	-0.280102	0	0	-0.381636	0.00910657	-0.104136	0.543255	-0.363575	0.825793	0.533857	1.27506	0	0	-0.12022	-0.350646	-0.0867201	0.887152	1.54494	0	0
0.1	0.290111	1.36077	1.38333	0.657467	0.151765	1.04047	0.485863	-0.0517747	0.0270913	0.534162	-0.216967	0	0	0.378686	-0.15378	-0.220271	0.450657	-0.278964	0	0	-0.382313	0.00904971	-0.103147	0.548911	-0.36694	0.83769	0.540305	1.25728	0	0	-0.115033	-0.352684	-0.0819214	0.885883	1.54358	0	0
0.11	0.286621	1.35496	1.38124	0.656542	0.150788	1.0397	0.500254	-0.0510204	0.0327876	0.544503	-0.217496	0	0	0.383537	-0.154903	-0.224323	0.449465	-0.27723	0	0	-0.382539	0.008799	-0.101543	0.553686	-0.36975	0.847874	0.546194	1.24416	0	0	-0.109213	-0.354464	-0.0770689	0.883669	1.54189	0	0
0.12	0.281862	1.34866	1.38045	0.655712	0.149855	1.03889	0.514194	-0.0502156	0.0382263	0.55322	-0.216719	0	0	0.3894	-0.15584	-0.228405	0.449137	-0.27556	0	0	-0.382383	0.0085729	-0.0996309	0.557295	-0.372399	0.854023	0.552262	1.23442	0	0	-0.102789	-0.356102	-0.0715623	0.880449	1.54008	0	0
0.13	0.277537	1.34249	1.38014	0.654915	0.148943	1.03809	0.527156	-0.0495395	0.0426094	0.560751	-0.213892	0	0	0.395737	-0.156502	-0.231483	0.449387	-0.274518	0	0	-0.382468	0.00896672	-0.0988989	0.56054	-0.373701	0.85546	0.557137	1.23037	0	0	-0.0965301	-0.357526	-0.0672203	0.877127	1.53686	0	0
0.14	0.272163	1.33627	1.38213	0.654086	0.147998	1.03731	0.538751	-0.0494805	0.0463526	0.565492	-0.209286	0	0	0.402128	-0.156468	-0.233626	0.448681	-0.274219	0	0	-0.382427	0.0097064	-0.0989683	0.56322	-0.37435	0.855255	0.560926	1.2339	0	0	-0.0896584	-0.358877	-0.0624556	0.87297	1.53361	0	0
0.15	0.26648	1.32958	1.38542	0.653342	0.147067	1.03648	0.549362	-0.0493812	0.0500054	0.567321	-0.202929	0	0	0.409455	-0.156066	-0.234546	0.4483	-0.274095	0	0	-0.381679	0.0106866	-0.0988974	0.563495	-0.374269	0.847948	0.564267	1.24594	0	0	-0.0819851	-0.360671	-0.055978	0.867837	1.52887	0	0
0.16	0.261008	1.32212	1.38936	0.65269	0.146165	1.03563	0.559331	-0.0491137	0.0537175	0.566245	-0.19692	0	0	0.417969	-0.155456	-0.234217	0.448121	-0.274127	0	0	-0.379927	0.0119677	-0.0974058	0.559135	-0.373504	0.826594	0.5678	1.2734	0	0	-0.0721456	-0.363323	-0.0447626	0.860796	1.52094	0	0
0.17	0.192293	1.32178	1.46119	0.655803	0.144791	1.03357	0.57191	-0.0619744	0.0674902	0.581844	-0.173697	0	0	0.422449	-0.143498	-0.233451	0.44727	-0.273374	0	0	-0.171502	-0.100701	0.392932	0.145084	-0.37443	0.12755	0.385149	1.42212	0	0	0.494688	-0.262903	1.24204	0.357519	0.953547	0	0
0.18	0.269558	1.31947	1.37892	0.650819	0.143797	1.03516	0.561516	-0.0478058	0.0571277	0.554448	-0.188785	0	0	0.422049	-0.156703	-0.236403	0.448811	-0.273241	0	0	-0.38919	0.0264765	-0.106294	0.591436	-0.384072	0.911785	0.574921	1.19276	0	0	-0.0579336	-0.361058	-0.0390378	0.844241	1.50902	0	0
0.19	0.22096	1.28364	1.42771	0.651325	0.144372	1.03223	0.598652	-0.0533377	0.0644508	0.546085	-0.191649	0	0	0.458729	-0.146791	-0.22899	0.439841	-0.282022	0	0	-0.35743	-0.000340098	-0.0985657	0.561361	-0.373395	0.860083	0.564599	1.21724	0	0	-0.0534587	-0.372237	-0.0308958	0.851262	1.50635	0	0
